<svg id="visual" viewBox="0 0 960 540" width="960" height="540" xmlns="http://www.w3.org/2000/svg" xmlns:xlink="http://www.w3.org/1999/xlink" version="1.1"><rect x="0" y="0" width="960" height="540" fill="#212F45"></rect><defs><linearGradient id="grad1_0" x1="43.8%" y1="100%" x2="100%" y2="0%"><stop offset="14.444444444444446%" stop-color="#006466" stop-opacity="1"></stop><stop offset="85.55555555555554%" stop-color="#006466" stop-opacity="1"></stop></linearGradient></defs><defs><linearGradient id="grad1_1" x1="43.8%" y1="100%" x2="100%" y2="0%"><stop offset="14.444444444444446%" stop-color="#006466" stop-opacity="1"></stop><stop offset="85.55555555555554%" stop-color="#0a495d" stop-opacity="1"></stop></linearGradient></defs><defs><linearGradient id="grad1_2" x1="43.8%" y1="100%" x2="100%" y2="0%"><stop offset="14.444444444444446%" stop-color="#212f45" stop-opacity="1"></stop><stop offset="85.55555555555554%" stop-color="#0a495d" stop-opacity="1"></stop></linearGradient></defs><defs><linearGradient id="grad2_0" x1="0%" y1="100%" x2="56.3%" y2="0%"><stop offset="14.444444444444446%" stop-color="#006466" stop-opacity="1"></stop><stop offset="85.55555555555554%" stop-color="#006466" stop-opacity="1"></stop></linearGradient></defs><defs><linearGradient id="grad2_1" x1="0%" y1="100%" x2="56.3%" y2="0%"><stop offset="14.444444444444446%" stop-color="#0a495d" stop-opacity="1"></stop><stop offset="85.55555555555554%" stop-color="#006466" stop-opacity="1"></stop></linearGradient></defs><defs><linearGradient id="grad2_2" x1="0%" y1="100%" x2="56.3%" y2="0%"><stop offset="14.444444444444446%" stop-color="#0a495d" stop-opacity="1"></stop><stop offset="85.55555555555554%" stop-color="#212f45" stop-opacity="1"></stop></linearGradient></defs><g transform="translate(960, 540)"><path d="M-351 0C-320.3 -48.6 -289.5 -97.2 -264.1 -152.5C-238.7 -207.8 -218.6 -269.8 -175.5 -304C-132.4 -338.2 -66.2 -344.6 0 -351L0 0Z" fill="#193c53"></path><path d="M-234 0C-213.5 -32.4 -193 -64.8 -176.1 -101.7C-159.2 -138.5 -145.8 -179.9 -117 -202.6C-88.2 -225.4 -44.1 -229.7 0 -234L0 0Z" fill="#005764"></path><path d="M-117 0C-106.8 -16.2 -96.5 -32.4 -88 -50.8C-79.6 -69.3 -72.9 -89.9 -58.5 -101.3C-44.1 -112.7 -22.1 -114.9 0 -117L0 0Z" fill="#006466"></path></g><g transform="translate(0, 0)"><path d="M351 0C341.6 61 332.2 122 304 175.5C275.8 229 228.8 275.1 175 303.1C121.2 331.1 60.6 341.1 0 351L0 0Z" fill="#193c53"></path><path d="M234 0C227.7 40.7 221.4 81.3 202.6 117C183.9 152.7 152.5 183.4 116.7 202.1C80.8 220.7 40.4 227.4 0 234L0 0Z" fill="#005764"></path><path d="M117 0C113.9 20.3 110.7 40.7 101.3 58.5C91.9 76.3 76.3 91.7 58.3 101C40.4 110.4 20.2 113.7 0 117L0 0Z" fill="#006466"></path></g></svg>