<svg id="visual" viewBox="0 0 900 100" width="900" height="100" xmlns="http://www.w3.org/2000/svg" xmlns:xlink="http://www.w3.org/1999/xlink" version="1.1"><rect x="0" y="0" width="900" height="100" fill="#212F45"></rect><path d="M0 81L15 82.5C30 84 60 87 90 89C120 91 150 92 180 90.7C210 89.3 240 85.7 270 84.7C300 83.7 330 85.3 360 87.3C390 89.3 420 91.7 450 91.7C480 91.7 510 89.3 540 87.8C570 86.3 600 85.7 630 86.7C660 87.7 690 90.3 720 91.5C750 92.7 780 92.3 810 90.5C840 88.7 870 85.3 885 83.7L900 82L900 0L885 0C870 0 840 0 810 0C780 0 750 0 720 0C690 0 660 0 630 0C600 0 570 0 540 0C510 0 480 0 450 0C420 0 390 0 360 0C330 0 300 0 270 0C240 0 210 0 180 0C150 0 120 0 90 0C60 0 30 0 15 0L0 0Z" fill="#006466"></path><path d="M0 72L15 71.5C30 71 60 70 90 69.7C120 69.3 150 69.7 180 70C210 70.3 240 70.7 270 70.8C300 71 330 71 360 72.2C390 73.3 420 75.7 450 76.3C480 77 510 76 540 75C570 74 600 73 630 72.7C660 72.3 690 72.7 720 72C750 71.3 780 69.7 810 69.8C840 70 870 72 885 73L900 74L900 0L885 0C870 0 840 0 810 0C780 0 750 0 720 0C690 0 660 0 630 0C600 0 570 0 540 0C510 0 480 0 450 0C420 0 390 0 360 0C330 0 300 0 270 0C240 0 210 0 180 0C150 0 120 0 90 0C60 0 30 0 15 0L0 0Z" fill="#015f64"></path><path d="M0 69L15 67.7C30 66.3 60 63.7 90 61.3C120 59 150 57 180 56.2C210 55.3 240 55.7 270 57.5C300 59.3 330 62.7 360 64.3C390 66 420 66 450 64.2C480 62.3 510 58.7 540 58C570 57.3 600 59.7 630 61.3C660 63 690 64 720 64C750 64 780 63 810 61.2C840 59.3 870 56.7 885 55.3L900 54L900 0L885 0C870 0 840 0 810 0C780 0 750 0 720 0C690 0 660 0 630 0C600 0 570 0 540 0C510 0 480 0 450 0C420 0 390 0 360 0C330 0 300 0 270 0C240 0 210 0 180 0C150 0 120 0 90 0C60 0 30 0 15 0L0 0Z" fill="#045961"></path><path d="M0 51L15 51.5C30 52 60 53 90 53.7C120 54.3 150 54.7 180 53.8C210 53 240 51 270 50.3C300 49.7 330 50.3 360 50.7C390 51 420 51 450 50C480 49 510 47 540 47.8C570 48.7 600 52.3 630 52C660 51.7 690 47.3 720 47.2C750 47 780 51 810 51.8C840 52.7 870 50.3 885 49.2L900 48L900 0L885 0C870 0 840 0 810 0C780 0 750 0 720 0C690 0 660 0 630 0C600 0 570 0 540 0C510 0 480 0 450 0C420 0 390 0 360 0C330 0 300 0 270 0C240 0 210 0 180 0C150 0 120 0 90 0C60 0 30 0 15 0L0 0Z" fill="#08545e"></path><path d="M0 36L15 35.5C30 35 60 34 90 34.7C120 35.3 150 37.7 180 38.5C210 39.3 240 38.7 270 38C300 37.3 330 36.7 360 36.3C390 36 420 36 450 36.2C480 36.3 510 36.7 540 35.7C570 34.7 600 32.3 630 33.2C660 34 690 38 720 40.3C750 42.7 780 43.3 810 42.8C840 42.3 870 40.7 885 39.8L900 39L900 0L885 0C870 0 840 0 810 0C780 0 750 0 720 0C690 0 660 0 630 0C600 0 570 0 540 0C510 0 480 0 450 0C420 0 390 0 360 0C330 0 300 0 270 0C240 0 210 0 180 0C150 0 120 0 90 0C60 0 30 0 15 0L0 0Z" fill="#0d4f5a"></path><path d="M0 22L15 23C30 24 60 26 90 27C120 28 150 28 180 26.3C210 24.7 240 21.3 270 20.5C300 19.7 330 21.3 360 21.8C390 22.3 420 21.7 450 22C480 22.3 510 23.7 540 24.3C570 25 600 25 630 25C660 25 690 25 720 24.2C750 23.3 780 21.7 810 21C840 20.3 870 20.7 885 20.8L900 21L900 0L885 0C870 0 840 0 810 0C780 0 750 0 720 0C690 0 660 0 630 0C600 0 570 0 540 0C510 0 480 0 450 0C420 0 390 0 360 0C330 0 300 0 270 0C240 0 210 0 180 0C150 0 120 0 90 0C60 0 30 0 15 0L0 0Z" fill="#114a56"></path><path d="M0 6L15 6.5C30 7 60 8 90 8.8C120 9.7 150 10.3 180 11C210 11.7 240 12.3 270 11.2C300 10 330 7 360 6C390 5 420 6 450 7.3C480 8.7 510 10.3 540 11.2C570 12 600 12 630 11.8C660 11.7 690 11.3 720 11.2C750 11 780 11 810 10.3C840 9.7 870 8.3 885 7.7L900 7L900 0L885 0C870 0 840 0 810 0C780 0 750 0 720 0C690 0 660 0 630 0C600 0 570 0 540 0C510 0 480 0 450 0C420 0 390 0 360 0C330 0 300 0 270 0C240 0 210 0 180 0C150 0 120 0 90 0C60 0 30 0 15 0L0 0Z" fill="#144552"></path></svg>